<?xml version="1.0" encoding="UTF-8" standalone="no"?>
<!-- Created with Inkscape (http://www.inkscape.org/) -->

<svg
   width="165.47363mm"
   height="34.556458mm"
   viewBox="0 0 165.47363 34.556458"
   version="1.1"
   id="svg1"
   xml:space="preserve"
   xmlns:inkscape="http://www.inkscape.org/namespaces/inkscape"
   xmlns:sodipodi="http://sodipodi.sourceforge.net/DTD/sodipodi-0.dtd"
   xmlns:xlink="http://www.w3.org/1999/xlink"
   xmlns="http://www.w3.org/2000/svg"
   xmlns:svg="http://www.w3.org/2000/svg"><sodipodi:namedview
     id="namedview1"
     pagecolor="#ffffff"
     bordercolor="#000000"
     borderopacity="0.25"
     inkscape:showpageshadow="2"
     inkscape:pageopacity="0.0"
     inkscape:pagecheckerboard="0"
     inkscape:deskcolor="#d1d1d1"
     inkscape:document-units="mm"><inkscape:page
       x="0"
       y="0"
       width="165.47363"
       height="34.556458"
       id="page2"
       margin="0"
       bleed="0" /></sodipodi:namedview><defs
     id="defs1"><linearGradient
       id="linearGradient6"
       inkscape:collect="always"><stop
         style="stop-color:#2563eb;stop-opacity:1;"
         offset="0"
         id="stop6" /><stop
         style="stop-color:#0ea5e9;stop-opacity:1;"
         offset="1"
         id="stop7" /></linearGradient><linearGradient
       id="linearGradient4"
       inkscape:collect="always"><stop
         style="stop-color:#c026d3;stop-opacity:1;"
         offset="0"
         id="stop4" /><stop
         style="stop-color:#9333ea;stop-opacity:1;"
         offset="1"
         id="stop5" /></linearGradient><linearGradient
       inkscape:collect="always"
       xlink:href="#linearGradient4"
       id="linearGradient5"
       x1="38.22456"
       y1="136.6377"
       x2="88.88485"
       y2="136.6377"
       gradientUnits="userSpaceOnUse"
       gradientTransform="translate(5.1220415,-5.5223734)" /><linearGradient
       inkscape:collect="always"
       xlink:href="#linearGradient6"
       id="linearGradient7"
       x1="92.621895"
       y1="139.24818"
       x2="175.41467"
       y2="139.24818"
       gradientUnits="userSpaceOnUse"
       gradientTransform="translate(5.1220415,-5.5223734)" /><linearGradient
       id="purpleBlueGradient"
       x1="0"
       y1="0"
       x2="1"
       y2="1"><stop
         offset="0%"
         stop-color="#9333ea"
         id="stop1" /><stop
         offset="100%"
         stop-color="#3b82f6"
         id="stop2" /></linearGradient><linearGradient
       id="purpleGlowGradient"
       x1="47.34544"
       y1="-9.4881725"
       x2="401.95306"
       y2="345.11945"
       gradientTransform="scale(0.86405364,1.1573356)"
       gradientUnits="userSpaceOnUse"><stop
         offset="0%"
         stop-color="#a855f7"
         stop-opacity="0.8"
         id="stop3" /><stop
         offset="100%"
         stop-color="#6366f1"
         stop-opacity="0.6"
         id="stop4-0" /></linearGradient><filter
       id="glow"
       x="-0.071641791"
       y="-0.051612903"
       width="1.1432836"
       height="1.1032258"><feGaussianBlur
         stdDeviation="8"
         result="blur"
         id="feGaussianBlur4" /><feComposite
         in="SourceGraphic"
         in2="blur"
         operator="over"
         id="feComposite4" /></filter><linearGradient
       inkscape:collect="always"
       xlink:href="#purpleBlueGradient"
       id="linearGradient8"
       x1="70.817986"
       y1="6.9761357"
       x2="386.56473"
       y2="322.72287"
       gradientTransform="scale(0.84878154,1.1781595)"
       gradientUnits="userSpaceOnUse" /><linearGradient
       inkscape:collect="always"
       xlink:href="#purpleBlueGradient"
       id="linearGradient9"
       x1="516.90472"
       y1="122.78812"
       x2="557.7948"
       y2="163.67821"
       gradientTransform="scale(0.53802759,1.8586408)"
       gradientUnits="userSpaceOnUse" /><linearGradient
       inkscape:collect="always"
       xlink:href="#purpleBlueGradient"
       id="linearGradient10"
       x1="247.59464"
       y1="332.22562"
       x2="255.79219"
       y2="340.42316"
       gradientTransform="scale(1.0246951,0.97590007)"
       gradientUnits="userSpaceOnUse" /></defs><g
     inkscape:label="Layer 1"
     inkscape:groupmode="layer"
     id="layer1"
     transform="translate(-15.063086,-114.95612)"><text
       xml:space="preserve"
       style="font-size:35.2778px;text-align:start;writing-mode:lr-tb;direction:ltr;text-anchor:start;fill:url(#linearGradient5);fill-rule:evenodd;stroke-width:0.264583"
       x="42.501293"
       y="143.72714"
       id="text1"
       inkscape:export-filename="SolHype-Just words.svg"
       inkscape:export-xdpi="17.104378"
       inkscape:export-ydpi="17.104378"><tspan
         sodipodi:role="line"
         id="tspan1"
         style="font-style:normal;font-variant:normal;font-weight:bold;font-stretch:normal;font-size:35.2778px;font-family:'Helvetica Neue';-inkscape-font-specification:'Helvetica Neue Bold';fill:url(#linearGradient5);stroke-width:0.264583"
         x="42.501293"
         y="143.72714">Sol</tspan></text><text
       xml:space="preserve"
       style="font-style:normal;font-variant:normal;font-weight:bold;font-stretch:normal;font-size:35.2777px;font-family:'Helvetica Neue';-inkscape-font-specification:'Helvetica Neue Bold';text-align:start;writing-mode:lr-tb;direction:ltr;text-anchor:start;fill:url(#linearGradient7);fill-rule:evenodd;stroke-width:0.264583"
       x="95.309776"
       y="143.12732"
       id="text4"><tspan
         sodipodi:role="line"
         id="tspan4"
         style="fill:url(#linearGradient7);stroke-width:0.264583"
         x="95.309776"
         y="143.12732">Hype</tspan></text><g
       id="g7"
       transform="matrix(0.08043674,0,0,0.08043674,11.7725,115.8394)"><path
         filter="url(#glow)"
         d="m 160.109,182.619 c 0.8,6.8 -6,11.6 -12,8 -22,-12.8 -32.8,-36.4 -47.2,-56.8 -23.2,36.8 -40.8,72.4 -40.8,110.4 0,77.2 54.8,136 132,136 77.2,0 136,-58.8 136,-136 0,-96.8 -101.2,-113.6 -100,-236 -40.8,28.8 -79.2,93.2 -68,174.4 z"
         fill="url(#purpleGlowGradient)"
         id="path4"
         style="fill:url(#purpleGlowGradient)" /><path
         d="m 160.109,182.619 c 0.8,6.8 -6,11.6 -12,8 -22,-12.8 -32.8,-36.4 -47.2,-56.8 -23.2,36.8 -40.8,72.4 -40.8,110.4 0,77.2 54.8,136 132,136 77.2,0 136,-58.8 136,-136 0,-96.8 -101.2,-113.6 -100,-236 -40.8,28.8 -79.2,93.2 -68,174.4 z"
         fill="url(#purpleBlueGradient)"
         id="path5"
         style="fill:url(#linearGradient8)" /><path
         d="m 192.109,388.219 c -81.2,0 -140,-60.4 -140,-144 0,-42 20.4,-80 42,-114.8 1.6,-2.4 4,-3.6 6.4,-3.6 2.8,0 5.2,1.2 6.8,3.2 3.6,4.8 6.8,10 10,15.2 10,15.6 19.6,30.4 34.8,39.2 v 0 c -11.6,-82.8 27.6,-151.2 71.2,-182 2.4,-1.6 5.6,-2 8.4,-0.4 2.8,1.2 4.4,4 4.4,7.2 -0.8,62 26.4,96 52.4,128.4 23.6,29.2 47.6,59.2 47.6,107.6 0,82 -62,144 -144,144 z m -90.8,-239.6 c -18,29.6 -33.2,61.6 -33.2,95.6 0,74 52,128 124,128 72.8,0 128,-55.2 128,-128 0,-42.8 -20.4,-68 -44,-97.6 -24.4,-30.4 -51.6,-64.4 -55.6,-122 -34.4,31.2 -62,88.4 -52.4,156.8 v 0 c 0.8,6.4 -2,12.4 -7.2,15.6 -5.2,3.2 -11.6,3.2 -16.8,0 -18.4,-10.8 -29.2,-28 -40,-44.4 -1.2,-1.2 -2,-2.4 -2.8,-4 z"
         fill="rgba(79, 70, 229, 0.6)"
         id="path6" /><path
         d="m 278.109,304.219 c 14,-21.6 22,-47.6 22,-76"
         fill="url(#purpleBlueGradient)"
         id="path7"
         style="fill:url(#linearGradient9)" /><path
         d="m 278.109,312.219 c -1.6,0 -3.2,-0.4 -4.4,-1.2 -3.6,-2.4 -4.8,-7.2 -2.4,-11.2 13.6,-20.8 20.8,-45.6 20.8,-71.6 0,-4.4 3.6,-8 8,-8 4.4,0 8,3.6 8,8 0,29.2 -8,56.8 -23.2,80.4 -1.6,2.4 -4,3.6 -6.8,3.6 z"
         fill="rgba(79, 70, 229, 0.6)"
         id="path8" /><path
         d="m 253.709,332.219 c 2.8,-2.4 6,-5.2 8.4,-8"
         fill="url(#purpleBlueGradient)"
         id="path9"
         style="fill:url(#linearGradient10)" /><path
         d="m 253.709,340.219 c -2.4,0 -4.4,-0.8 -6,-2.8 -2.8,-3.2 -2.4,-8.4 0.8,-11.2 2.4,-2.4 5.6,-4.8 7.6,-7.2 2.8,-3.2 8,-3.6 11.2,-0.8 3.2,2.8 3.6,8 0.8,11.2 -2.8,3.2 -6.4,6.4 -9.2,8.8 -1.6,1.2 -3.2,2 -5.2,2 z"
         fill="rgba(79, 70, 229, 0.6)"
         id="path10" /></g></g></svg>
